<svg width="188" height="54" viewBox="0 0 188 54" fill="none" xmlns="http://www.w3.org/2000/svg">
<path d="M26.6308 52.194C40.7496 52.194 52.1952 40.7484 52.1952 26.6296C52.1952 12.5108 40.7496 1.06519 26.6308 1.06519C12.512 1.06519 1.06641 12.5108 1.06641 26.6296C1.06641 40.7484 12.512 52.194 26.6308 52.194Z" fill="#171C2A"/>
<path d="M26.6296 53.2592C21.3628 53.2592 16.2142 51.6974 11.835 48.7713C7.45578 45.8452 4.0426 41.6862 2.02707 36.8203C0.0115378 31.9544 -0.515816 26.6001 0.511692 21.4344C1.5392 16.2688 4.07542 11.5239 7.79964 7.79964C11.5239 4.07542 16.2688 1.5392 21.4344 0.511692C26.6001 -0.515816 31.9544 0.0115378 36.8203 2.02707C41.6862 4.0426 45.8452 7.45578 48.7713 11.835C51.6974 16.2142 53.2592 21.3628 53.2592 26.6296C53.2507 33.6896 50.4424 40.458 45.4502 45.4502C40.458 50.4424 33.6896 53.2507 26.6296 53.2592ZM26.6296 2.13038C21.7841 2.13038 17.0474 3.56723 13.0186 6.25924C8.98969 8.95125 5.84956 12.7775 3.99527 17.2542C2.14098 21.7308 1.65582 26.6568 2.60112 31.4092C3.54643 36.1615 5.87976 40.5269 9.30603 43.9532C12.7323 47.3794 17.0977 49.7128 21.85 50.6581C26.6024 51.6034 31.5284 51.1182 36.005 49.2639C40.4817 47.4096 44.308 44.2695 47 40.2406C49.692 36.2118 51.1288 31.4751 51.1288 26.6296C51.1204 20.1346 48.5365 13.908 43.9438 9.31537C39.3512 4.72271 33.1246 2.13883 26.6296 2.13038Z" fill="#00A2FF"/>
<path d="M72.6768 23.086C72.6026 22.3372 72.2839 21.7555 71.7207 21.3409C71.1575 20.9262 70.3933 20.7189 69.4279 20.7189C68.7719 20.7189 68.218 20.8118 67.7662 20.9974C67.3145 21.1769 66.9679 21.4275 66.7266 21.7493C66.4914 22.0711 66.3738 22.4362 66.3738 22.8447C66.3614 23.185 66.4326 23.4821 66.5873 23.7358C66.7482 23.9896 66.9679 24.2092 67.2464 24.3949C67.5249 24.5744 67.8467 24.7322 68.2118 24.8683C68.5769 24.9983 68.9668 25.1097 69.3814 25.2025L71.0895 25.6109C71.9187 25.7966 72.6799 26.0441 73.373 26.3536C74.0661 26.663 74.6664 27.0436 75.1739 27.4953C75.6813 27.9471 76.0743 28.4793 76.3528 29.092C76.6375 29.7046 76.7829 30.407 76.7891 31.1992C76.7829 32.3626 76.4859 33.3713 75.8979 34.2254C75.3162 35.0732 74.4746 35.7323 73.373 36.2026C72.2777 36.6667 70.9564 36.8988 69.4093 36.8988C67.8745 36.8988 66.5378 36.6636 65.3991 36.1933C64.2666 35.723 63.3817 35.0268 62.7443 34.1047C62.113 33.1764 61.782 32.0284 61.751 30.6608H65.6405C65.6838 31.2982 65.8664 31.8304 66.1882 32.2574C66.5162 32.6782 66.9525 32.9969 67.497 33.2135C68.0478 33.4239 68.6698 33.5291 69.3629 33.5291C70.0436 33.5291 70.6346 33.4301 71.1359 33.2321C71.6433 33.0341 72.0363 32.7587 72.3148 32.4059C72.5933 32.0532 72.7325 31.6478 72.7325 31.1899C72.7325 30.7629 72.6057 30.4039 72.3519 30.1131C72.1044 29.8222 71.7393 29.5747 71.2566 29.3705C70.78 29.1662 70.1952 28.9806 69.5021 28.8135L67.4321 28.2937C65.8292 27.9038 64.5637 27.2942 63.6354 26.465C62.7071 25.6357 62.2461 24.5187 62.2523 23.1139C62.2461 21.9628 62.5524 20.9572 63.1713 20.097C63.7963 19.2368 64.6534 18.5653 65.7426 18.0826C66.8318 17.5999 68.0695 17.3586 69.4557 17.3586C70.8667 17.3586 72.0982 17.5999 73.1502 18.0826C74.2085 18.5653 75.0316 19.2368 75.6195 20.097C76.2074 20.9572 76.5106 21.9535 76.5292 23.086H72.6768ZM87.0025 22.3713V25.3417H78.4159V22.3713H87.0025ZM80.3653 18.9552H84.3197V32.2481C84.3197 32.6132 84.3754 32.8979 84.4868 33.1021C84.5982 33.3002 84.7529 33.4394 84.951 33.5199C85.1552 33.6003 85.3904 33.6405 85.6565 33.6405C85.8421 33.6405 86.0278 33.6251 86.2134 33.5941C86.3991 33.557 86.5414 33.5291 86.6404 33.5106L87.2624 36.4532C87.0643 36.5151 86.7859 36.5863 86.4269 36.6667C86.068 36.7534 85.6317 36.806 85.1181 36.8245C84.165 36.8617 83.3296 36.7348 82.6117 36.4439C81.9 36.1531 81.3462 35.7013 80.9501 35.0887C80.554 34.476 80.3591 33.7024 80.3653 32.768V18.9552ZM93.6443 36.8988C92.7346 36.8988 91.9239 36.741 91.2122 36.4254C90.5005 36.1036 89.9374 35.6301 89.5227 35.0051C89.1143 34.3739 88.9101 33.5879 88.9101 32.6473C88.9101 31.8552 89.0555 31.1899 89.3464 30.6515C89.6372 30.1131 90.0333 29.6799 90.5346 29.3519C91.0358 29.0239 91.6052 28.7764 92.2426 28.6093C92.8862 28.4422 93.5607 28.3246 94.2662 28.2565C95.0955 28.1699 95.7638 28.0894 96.2713 28.0152C96.7788 27.9347 97.147 27.8172 97.376 27.6624C97.6049 27.5077 97.7194 27.2788 97.7194 26.9755V26.9198C97.7194 26.3319 97.5338 25.8771 97.1624 25.5552C96.7973 25.2334 96.2775 25.0725 95.6029 25.0725C94.8913 25.0725 94.325 25.2304 93.9042 25.546C93.4834 25.8554 93.2049 26.2453 93.0687 26.7156L89.4113 26.4185C89.597 25.5522 89.9621 24.8033 90.5067 24.1721C91.0513 23.5347 91.7537 23.0458 92.6139 22.7054C93.4803 22.3589 94.4828 22.1856 95.6215 22.1856C96.4136 22.1856 97.1717 22.2784 97.8958 22.4641C98.626 22.6497 99.2727 22.9375 99.8359 23.3274C100.405 23.7173 100.853 24.2185 101.181 24.8312C101.509 25.4377 101.673 26.1648 101.673 27.0126V36.6296H97.9236V34.6524H97.8122C97.5833 35.0979 97.2769 35.4909 96.8932 35.8313C96.5096 36.1655 96.0485 36.4285 95.5101 36.6203C94.9717 36.806 94.3498 36.8988 93.6443 36.8988ZM94.7768 34.1697C95.3585 34.1697 95.8721 34.0552 96.3177 33.8262C96.7633 33.591 97.1129 33.2754 97.3667 32.8794C97.6204 32.4833 97.7473 32.0346 97.7473 31.5334V30.0203C97.6235 30.1007 97.4533 30.175 97.2367 30.243C97.0263 30.3049 96.788 30.3637 96.5219 30.4194C96.2558 30.4689 95.9897 30.5153 95.7236 30.5587C95.4575 30.5958 95.2162 30.6298 94.9996 30.6608C94.5354 30.7288 94.1301 30.8371 93.7835 30.9857C93.437 31.1342 93.1678 31.3353 92.9759 31.589C92.7841 31.8366 92.6882 32.146 92.6882 32.5173C92.6882 33.0557 92.8831 33.4673 93.273 33.7519C93.669 34.0304 94.1703 34.1697 94.7768 34.1697ZM106.672 41.9765C106.171 41.9765 105.701 41.9362 105.261 41.8558C104.828 41.7815 104.469 41.6856 104.184 41.568L105.076 38.6161C105.54 38.7584 105.957 38.8358 106.329 38.8482C106.706 38.8606 107.031 38.7739 107.303 38.5883C107.582 38.4026 107.808 38.087 107.981 37.6414L108.213 37.038L103.098 22.3713H107.257L110.209 32.8422H110.358L113.337 22.3713H117.524L111.982 38.1705C111.716 38.9379 111.354 39.6063 110.896 40.1756C110.444 40.7511 109.872 41.1936 109.179 41.503C108.485 41.8187 107.65 41.9765 106.672 41.9765Z" fill="#171C2A"/>
<path d="M135.765 22.3713C135.654 21.4306 135.202 20.7004 134.41 20.1805C133.618 19.6607 132.646 19.4008 131.495 19.4008C130.654 19.4008 129.917 19.5369 129.286 19.8092C128.661 20.0815 128.172 20.4559 127.819 20.9324C127.473 21.4089 127.299 21.9504 127.299 22.5569C127.299 23.0644 127.42 23.5007 127.661 23.8658C127.909 24.2247 128.225 24.5249 128.608 24.7662C128.992 25.0014 129.394 25.1963 129.815 25.351C130.236 25.4996 130.623 25.6202 130.975 25.7131L132.906 26.2329C133.401 26.3629 133.952 26.5423 134.558 26.7713C135.171 27.0003 135.756 27.3128 136.313 27.7089C136.876 28.0987 137.34 28.6 137.705 29.2127C138.07 29.8253 138.253 30.5772 138.253 31.4684C138.253 32.4957 137.984 33.4239 137.445 34.2532C136.913 35.0825 136.133 35.7415 135.106 36.2304C134.085 36.7193 132.844 36.9638 131.384 36.9638C130.022 36.9638 128.843 36.7441 127.847 36.3047C126.857 35.8653 126.077 35.2526 125.508 34.4667C124.945 33.6808 124.626 32.768 124.552 31.7283H126.928C126.99 32.4462 127.231 33.0403 127.652 33.5106C128.079 33.9747 128.618 34.3213 129.267 34.5503C129.923 34.773 130.629 34.8844 131.384 34.8844C132.263 34.8844 133.052 34.7421 133.751 34.4574C134.45 34.1666 135.004 33.7643 135.412 33.2507C135.821 32.7308 136.025 32.1244 136.025 31.4312C136.025 30.8 135.849 30.2864 135.496 29.8903C135.143 29.4942 134.679 29.1724 134.104 28.9249C133.528 28.6774 132.906 28.4608 132.238 28.2751L129.899 27.6067C128.413 27.1797 127.237 26.5702 126.371 25.778C125.505 24.9859 125.071 23.9493 125.071 22.6683C125.071 21.6039 125.359 20.6756 125.935 19.8835C126.517 19.0852 127.296 18.4663 128.274 18.0269C129.258 17.5814 130.356 17.3586 131.569 17.3586C132.795 17.3586 133.884 17.5783 134.837 18.0176C135.79 18.4508 136.545 19.0449 137.102 19.7999C137.665 20.5549 137.962 21.412 137.993 22.3713H135.765ZM144.971 36.6296L140.627 22.3713H142.929L146.011 33.2878H146.16L149.204 22.3713H151.544L154.551 33.2507H154.7L157.782 22.3713H160.084L155.739 36.6296H153.586L150.467 25.6759H150.244L147.125 36.6296H144.971ZM162.98 36.6296V22.3713H165.171V36.6296H162.98ZM164.094 19.9949C163.667 19.9949 163.299 19.8494 162.989 19.5586C162.686 19.2677 162.534 18.9181 162.534 18.5096C162.534 18.1012 162.686 17.7515 162.989 17.4607C163.299 17.1698 163.667 17.0244 164.094 17.0244C164.521 17.0244 164.886 17.1698 165.189 17.4607C165.499 17.7515 165.653 18.1012 165.653 18.5096C165.653 18.9181 165.499 19.2677 165.189 19.5586C164.886 19.8494 164.521 19.9949 164.094 19.9949ZM175.533 22.3713V24.2278H167.846V22.3713H175.533ZM170.149 36.6296V20.4033C170.149 19.5864 170.34 18.9057 170.724 18.3611C171.108 17.8165 171.606 17.4081 172.219 17.1358C172.831 16.8635 173.478 16.7273 174.159 16.7273C174.697 16.7273 175.137 16.7707 175.477 16.8573C175.817 16.9439 176.071 17.0244 176.238 17.0986L175.607 18.9923C175.495 18.9552 175.341 18.9088 175.143 18.8531C174.951 18.7974 174.697 18.7695 174.382 18.7695C173.657 18.7695 173.135 18.9521 172.813 19.3172C172.497 19.6824 172.339 20.2177 172.339 20.9231V36.6296H170.149ZM184.804 22.3713V24.2278H177.415V22.3713H184.804ZM179.568 18.9552H181.759V32.5452C181.759 33.164 181.849 33.6282 182.028 33.9376C182.214 34.2408 182.449 34.445 182.734 34.5503C183.025 34.6493 183.331 34.6988 183.653 34.6988C183.894 34.6988 184.092 34.6864 184.247 34.6616C184.402 34.6307 184.525 34.6059 184.618 34.5874L185.064 36.5553C184.915 36.611 184.708 36.6667 184.442 36.7224C184.176 36.7843 183.838 36.8152 183.43 36.8152C182.811 36.8152 182.205 36.6822 181.611 36.4161C181.023 36.15 180.534 35.7446 180.144 35.2C179.76 34.6555 179.568 33.9685 179.568 33.1393V18.9552Z" fill="#171C2A"/>
<path d="M28.2188 14H26.1562C23.31 14 21 16.31 21 19.1562V19.6719C21 20.2391 21.4641 20.7031 22.0312 20.7031H23.0625C23.6297 20.7031 24.0938 20.2391 24.0938 19.6719V19.1511C24.0938 18.0167 25.0167 17.0937 26.1511 17.0886L28.2136 17.0834C29.3531 17.0834 30.2812 18.0064 30.2812 19.1459V21.2136C30.2812 22.3531 29.3583 23.2761 28.2239 23.2761L25.1198 23.2812C22.8408 23.2864 21 25.1323 21 27.4062V35.6562C21 36.7958 21.923 37.7188 23.0625 37.7188H31.3125C32.452 37.7188 33.375 36.7958 33.375 35.6562V19.1562C33.375 16.31 31.065 14 28.2188 14ZM25.3983 26.3131C25.8572 25.7408 26.6873 25.7098 27.1875 26.2203C27.6877 25.7098 28.5178 25.7408 28.9767 26.3131C29.3841 26.8184 29.2964 27.5661 28.8427 28.0302L27.5588 29.3502C27.3525 29.5564 27.0225 29.5564 26.8163 29.3502L25.5323 28.0302C25.0786 27.5661 24.9909 26.8184 25.3983 26.3131ZM29.7656 35.6562H24.6094C24.3258 35.6562 24.0938 35.4242 24.0938 35.1406C24.0938 34.857 24.3258 34.625 24.6094 34.625H29.7656C30.0492 34.625 30.2812 34.857 30.2812 35.1406C30.2812 35.4242 30.0492 35.6562 29.7656 35.6562ZM29.7656 33.0781H24.6094C24.3258 33.0781 24.0938 32.8461 24.0938 32.5625C24.0938 32.2789 24.3258 32.0469 24.6094 32.0469H29.7656C30.0492 32.0469 30.2812 32.2789 30.2812 32.5625C30.2812 32.8461 30.0492 33.0781 29.7656 33.0781Z" fill="white"/>
</svg>
